<?xml version="1.0" standalone="no"?>
<!DOCTYPE svg PUBLIC "-//W3C//DTD SVG 20010904//EN"
 "http://www.w3.org/TR/2001/REC-SVG-20010904/DTD/svg10.dtd">
<svg version="1.0" xmlns="http://www.w3.org/2000/svg"
 width="1053.000000pt" height="1053.000000pt" viewBox="0 0 1053.000000 1053.000000"
 preserveAspectRatio="xMidYMid meet">
<metadata>
Created by potrace 1.11, written by Peter Selinger 2001-2013
</metadata>
<g transform="translate(0.000000,1053.000000) scale(0.100000,-0.100000)"
fill="#000000" stroke="none">
<path d="M1554 10518 c3 -7 7 -26 11 -43 l6 -29 16 31 c19 39 37 47 80 32 19
-6 48 -8 65 -5 16 3 47 3 67 0 31 -5 42 -14 71 -60 19 -30 38 -54 43 -54 22 0
1 -23 -35 -40 -32 -15 -66 -20 -130 -20 -78 0 -88 -2 -99 -21 -8 -15 -8 -24 0
-32 16 -16 14 -21 -29 -66 l-41 -42 -28 30 c-33 35 -66 33 -76 -6 -8 -33 8
-50 46 -51 38 -1 40 -2 32 -30 -9 -35 -49 -50 -113 -43 l-55 6 3 57 c4 53 2
57 -27 79 -19 14 -35 38 -42 61 -12 48 -54 55 -114 18 -45 -28 -114 -35 -158
-16 -20 8 -37 20 -37 25 0 16 -35 31 -58 24 -12 -3 -22 -12 -22 -19 0 -16 -26
-19 -35 -4 -4 6 -19 9 -33 7 -34 -4 -54 -41 -47 -84 6 -35 2 -36 -60 -9 -43
19 -95 15 -114 -8 -8 -10 -37 -14 -93 -14 -65 -1 -85 -5 -102 -20 -11 -11 -31
-25 -43 -31 -12 -6 -28 -31 -37 -59 -15 -45 -45 -82 -66 -82 -6 0 -28 -18 -50
-39 -40 -38 -40 -40 -31 -83 6 -24 8 -53 5 -63 -5 -23 3 -35 33 -52 32 -18 51
-16 63 7 9 16 21 20 65 20 29 0 57 -4 60 -10 3 -5 19 -10 36 -10 22 0 29 -5
29 -19 0 -24 -21 -46 -63 -66 -21 -10 -42 -33 -58 -63 -32 -60 -59 -66 -82
-18 -10 22 -25 37 -39 40 -13 2 -44 8 -71 14 -60 12 -95 5 -103 -20 -8 -26
-60 -78 -79 -78 -12 0 -15 -12 -15 -57 0 -44 3 -54 12 -45 19 19 48 15 48 -7
0 -24 -23 -43 -44 -35 -15 6 -16 -302 -16 -3970 l0 -3977 20 11 c27 14 60 4
60 -19 0 -9 5 -22 11 -28 6 -6 14 -35 17 -64 l7 -54 50 -3 c59 -4 75 -15 75
-53 0 -21 12 -38 50 -71 27 -24 50 -50 50 -59 0 -9 -11 -28 -25 -43 -14 -15
-25 -34 -25 -42 0 -21 42 -34 109 -34 48 0 64 -5 99 -31 35 -25 42 -37 42 -64
0 -18 11 -57 24 -87 20 -45 30 -56 58 -64 27 -8 33 -15 31 -35 -6 -76 23 -92
96 -53 45 23 53 32 62 71 9 32 23 53 54 78 33 28 46 47 60 95 10 34 22 63 27
66 4 3 8 16 8 30 0 14 7 35 16 48 10 16 12 26 5 31 -19 11 -12 26 11 23 16 -2
22 -10 23 -31 2 -34 10 -42 27 -28 7 7 29 20 48 30 29 15 36 26 42 61 5 31 17
52 43 75 31 29 35 39 35 80 0 40 -5 51 -31 76 -31 29 -71 37 -98 20 -7 -5 -28
-4 -48 2 -28 9 -39 7 -63 -6 -37 -22 -73 -22 -93 1 -22 24 -21 39 2 85 15 30
17 42 8 61 -8 17 -14 21 -19 13 -12 -19 -29 14 -22 42 8 36 32 50 68 40 63
-18 90 -6 191 89 45 42 74 57 137 71 32 7 60 17 63 22 12 18 57 9 77 -16 11
-14 27 -25 36 -25 17 1 52 23 52 33 0 3 11 18 25 33 31 34 32 57 0 88 -36 36
-41 69 -16 109 29 47 27 54 -16 72 -34 15 -36 17 -19 27 13 7 15 13 7 18 -16
9 -16 78 -1 123 6 20 23 47 38 59 29 25 38 58 19 70 -14 8 -37 -9 -37 -28 0
-19 -24 -18 -40 1 -10 12 -10 21 -2 38 6 12 13 45 16 74 4 41 1 56 -14 73 -13
15 -18 31 -14 46 4 15 0 34 -11 50 -12 19 -15 37 -11 63 11 60 14 201 5 201
-16 0 -49 34 -49 50 0 8 7 28 15 43 8 15 16 44 19 65 2 20 6 44 8 52 2 12 -6
14 -38 12 -29 -2 -45 2 -56 15 -25 27 -31 65 -15 87 12 17 11 24 -9 60 -13 23
-24 53 -24 67 0 27 -48 89 -68 89 -6 0 -18 23 -27 50 -15 44 -20 50 -44 50
-34 0 -81 35 -81 60 0 19 -35 64 -106 134 -36 36 -42 48 -47 97 -6 67 -22 100
-73 154 -47 51 -74 94 -74 120 0 11 -9 37 -20 58 -12 21 -20 56 -20 82 0 25
-4 45 -9 45 -11 0 -28 43 -36 92 -3 20 -10 38 -16 40 -5 2 -14 28 -19 58 -4
30 -15 93 -23 140 -9 47 -18 137 -22 200 -4 63 -11 130 -17 148 -8 26 -6 40 6
67 14 28 15 42 5 79 -8 33 -8 58 0 96 6 28 11 71 11 96 0 25 7 55 15 67 13 21
49 123 74 214 6 24 23 54 36 69 13 14 27 40 31 57 7 36 99 132 159 167 22 13
63 43 90 66 35 30 75 51 129 69 44 14 85 30 93 36 20 18 301 18 316 1 14 -17
80 -49 120 -58 18 -3 43 -15 56 -25 13 -11 29 -19 35 -19 6 0 38 -19 71 -41
33 -22 71 -42 85 -46 13 -3 47 -29 74 -56 l50 -50 -23 -16 c-13 -9 -38 -21
-55 -27 -26 -9 -34 -20 -49 -65 -21 -62 -67 -116 -88 -103 -28 17 -68 12 -90
-12 -17 -18 -24 -40 -27 -85 -5 -69 2 -79 56 -79 25 0 32 -4 32 -19 0 -11 4
-21 8 -23 14 -5 62 -118 62 -144 0 -13 -16 -41 -35 -63 -19 -21 -35 -43 -35
-49 0 -26 -53 -52 -105 -52 -45 0 -55 -4 -81 -33 -16 -18 -40 -40 -53 -50 -23
-16 -25 -21 -24 -116 1 -120 13 -152 63 -163 19 -5 40 -10 45 -11 43 -11 47
-56 9 -86 -34 -27 -46 -26 -72 4 -25 29 -35 31 -52 10 -8 -9 -29 -15 -55 -15
-30 0 -45 -5 -49 -16 -10 -26 10 -41 64 -48 37 -5 54 -13 66 -30 8 -13 39 -36
68 -49 92 -44 119 -107 46 -107 -21 0 -30 -7 -40 -31 -10 -22 -10 -33 -1 -42
14 -14 14 -27 -1 -27 -7 0 -24 -12 -39 -26 -21 -20 -38 -26 -68 -26 -23 0 -45
-5 -52 -14 -12 -15 -64 -20 -73 -6 -2 4 -1 26 4 50 7 41 6 42 -19 42 -14 0
-33 6 -42 13 -15 11 -15 17 -3 52 7 22 14 50 14 63 0 20 -5 22 -52 22 -29 0
-58 -4 -64 -8 -31 -19 -36 -141 -6 -135 14 3 26 -40 19 -67 -6 -23 7 -35 50
-45 21 -4 39 -18 52 -38 36 -57 189 -187 219 -187 25 0 52 35 52 67 0 22 3 23
80 23 64 0 80 -3 80 -15 0 -8 4 -15 9 -15 5 0 16 -6 23 -13 47 -46 72 -57 124
-57 39 0 58 -5 71 -19 26 -28 91 -35 144 -17 60 21 72 20 104 -10 39 -36 67
-29 77 21 5 22 13 44 18 49 13 13 13 92 0 116 -5 10 -11 40 -12 66 -3 40 -7
49 -23 52 -50 7 -65 13 -65 26 0 8 -11 23 -25 34 -14 11 -32 37 -41 58 -9 21
-26 52 -38 68 -22 31 -43 84 -56 142 -5 20 -2 37 7 50 34 46 34 52 2 89 -28
31 -31 40 -23 67 9 29 14 32 52 35 36 2 42 0 47 -20 4 -13 5 -30 3 -38 -2 -8
5 -14 17 -14 14 0 21 8 23 28 3 22 8 27 32 27 19 0 33 -7 40 -19 11 -21 32
-21 125 -1 28 6 64 8 82 5 22 -4 42 1 65 15 49 30 64 26 38 -10 -27 -38 -23
-67 13 -94 l28 -21 56 29 c54 29 55 30 49 65 -3 21 -16 44 -33 58 l-28 22 26
1 c14 0 37 -10 50 -21 13 -12 41 -32 62 -45 36 -24 47 -47 27 -59 -6 -4 -9
-19 -8 -33 2 -20 -1 -26 -13 -24 -24 3 -43 -25 -41 -60 1 -16 -5 -45 -14 -63
-19 -41 -14 -62 20 -74 18 -7 25 -19 29 -48 3 -21 10 -56 16 -78 6 -22 8 -67
5 -100 -5 -48 -3 -63 10 -74 13 -11 21 -9 51 9 30 18 44 21 78 15 46 -8 69 -8
226 -1 93 5 107 8 130 30 14 13 42 26 61 29 55 8 122 36 146 62 12 13 40 28
61 34 42 12 77 36 85 61 7 22 -33 48 -93 61 -54 11 -93 35 -84 50 3 4 -8 17
-25 29 -37 26 -37 35 -5 56 30 20 52 7 57 -32 2 -14 8 -25 13 -25 6 0 17 -7
26 -15 11 -10 27 -12 60 -6 32 6 52 4 73 -8 25 -13 29 -13 34 -1 6 18 41 52
68 67 17 10 19 21 17 95 -2 67 -7 89 -23 109 -46 57 -54 74 -52 107 4 51 -21
85 -61 83 -66 -4 -70 -2 -64 28 3 15 -1 56 -8 92 -9 41 -10 70 -4 81 5 10 9
31 9 47 0 19 8 35 22 44 21 14 21 15 3 55 -15 35 -24 42 -54 48 -81 14 -87 22
-65 85 11 31 13 62 8 111 -11 109 6 155 82 231 35 34 64 69 64 77 0 7 -15 28
-34 46 -32 30 -66 83 -66 103 0 5 9 21 20 35 17 21 25 24 48 18 15 -5 38 -4
52 1 82 31 226 28 335 -7 62 -20 218 -19 261 1 28 13 32 19 23 31 -9 10 -38
13 -124 12 -67 -1 -127 3 -150 11 -27 9 -75 11 -166 6 -102 -4 -135 -2 -164
10 -57 23 -268 33 -399 19 -43 -5 -110 -3 -180 5 -108 12 -113 12 -155 -10
-35 -17 -53 -20 -88 -15 -37 5 -54 2 -100 -20 l-54 -27 -25 23 c-36 34 -30 60
26 111 47 43 56 47 123 54 40 4 101 8 137 9 36 2 128 4 205 7 77 2 156 1 175
-4 67 -15 271 -20 316 -8 60 17 69 30 49 76 -18 44 -13 66 20 88 18 12 25 25
25 49 0 22 7 36 21 45 20 13 22 41 4 85 -9 22 19 46 53 47 30 0 46 16 58 60 8
29 19 40 69 65 69 34 115 76 115 104 0 10 7 24 15 31 8 7 15 17 15 23 0 6 13
31 29 56 15 25 34 66 40 91 20 74 63 112 159 141 24 7 53 22 66 33 12 12 34
30 49 41 18 13 27 29 27 47 0 15 5 38 11 51 6 13 16 50 22 83 12 57 13 59 44
60 18 0 36 3 39 7 4 4 14 7 21 7 8 0 24 11 36 25 20 23 25 24 60 13 58 -18 63
-6 59 139 -2 62 -5 73 -22 78 -27 8 -27 35 0 28 43 -11 88 6 112 44 39 62 57
97 67 133 9 30 7 39 -13 70 -37 54 -80 97 -107 105 -50 15 -81 61 -34 53 17
-4 31 3 50 22 22 23 24 31 16 53 -12 32 -29 34 -63 7 -25 -19 -25 -19 -44 1
-17 19 -17 21 0 50 21 36 11 53 -37 63 -27 6 -30 8 -14 17 9 5 17 16 17 23 0
12 30 32 34 24 8 -16 25 -57 30 -71 6 -18 7 -18 37 0 66 38 64 71 -7 108 -48
25 -54 49 -19 85 21 22 26 35 21 55 -5 19 0 32 19 53 14 15 26 36 27 47 0 11
2 27 2 35 1 8 9 14 19 12 9 -2 17 2 17 8 0 5 7 10 16 10 14 0 16 8 10 47 -7
52 -24 71 -42 47 -7 -8 -20 -16 -31 -18 -16 -3 -20 1 -20 25 0 16 5 29 10 29
5 0 6 7 3 17 -8 20 40 74 60 66 17 -6 68 13 104 39 14 10 37 19 52 20 22 2 26
6 22 23 -8 34 18 59 62 57 63 -3 74 4 74 49 0 25 7 46 19 58 10 10 21 25 23
32 3 10 23 13 79 11 61 -3 81 -8 113 -30 41 -28 104 -34 143 -14 11 6 40 6 80
-1 53 -9 65 -8 88 7 23 15 26 23 22 51 -5 27 -2 34 19 44 13 6 24 15 24 21 0
5 6 10 14 10 7 0 26 10 41 21 15 12 43 23 62 25 54 5 66 19 47 56 -18 35 -6
78 21 78 8 0 15 4 15 10 0 5 17 18 38 29 20 10 47 31 59 45 29 33 58 40 122
28 28 -5 53 -6 56 -2 2 4 25 13 50 20 25 7 45 16 45 21 0 4 21 24 46 43 37 28
55 35 85 34 39 -1 68 19 69 48 1 36 90 11 90 -25 0 -46 57 -73 187 -87 54 -6
63 -10 73 -33 12 -29 77 -71 110 -71 39 0 90 -28 100 -56 10 -26 12 -26 73
-20 46 5 72 3 99 -8 21 -9 53 -16 71 -16 19 0 40 -7 47 -15 7 -8 16 -15 21
-15 7 0 61 -54 131 -131 10 -10 30 -21 45 -24 16 -4 36 -10 45 -16 10 -5 24
-9 32 -9 8 0 31 -16 52 -35 20 -19 40 -35 43 -35 4 0 14 -9 24 -20 9 -11 23
-20 32 -20 42 0 164 -105 165 -142 0 -10 7 -18 15 -18 8 0 15 -4 15 -10 0 -13
37 -7 52 8 9 9 9 15 0 24 -7 7 -12 27 -12 45 0 23 -5 33 -15 33 -8 0 -26 18
-40 40 -14 22 -30 40 -36 40 -6 0 -9 7 -5 15 4 12 -3 15 -29 15 -39 0 -69 31
-85 90 -12 45 -39 56 -82 34 -17 -9 -37 -13 -45 -10 -9 4 -22 1 -29 -5 -11 -9
-14 -9 -14 0 0 7 -10 9 -27 5 -26 -7 -27 -6 -13 11 11 13 12 19 3 22 -10 4
-10 9 0 24 11 17 6 25 -42 67 l-53 47 -5 72 c-6 75 -28 114 -74 128 -17 6 -20
12 -14 33 17 70 17 77 -5 97 -20 18 -24 18 -48 4 -28 -16 -35 -52 -17 -94 8
-18 7 -19 -8 -6 -11 9 -31 12 -58 8 -50 -7 -69 0 -69 23 0 10 -11 25 -25 34
-14 9 -25 24 -25 33 0 29 -24 88 -42 101 -10 7 -18 25 -18 40 -1 49 -43 82
-105 82 -35 0 -36 -1 -30 -30 6 -26 4 -30 -14 -30 -11 0 -37 18 -58 41 -36 38
-40 40 -80 34 -42 -6 -83 8 -83 30 0 5 -18 21 -40 35 -22 13 -40 30 -40 37 0
7 -4 13 -10 13 -15 0 -37 90 -35 143 2 37 -2 50 -14 55 -29 10 -131 82 -131
92 0 6 -35 10 -80 10 -73 0 -80 -2 -80 -20 0 -14 -14 -26 -46 -40 -60 -28 -90
-24 -86 11 2 22 -3 27 -37 37 -58 18 -4652 17 -4647 0z m2246 -38 c14 0 21
-32 9 -46 -15 -18 -90 -18 -114 0 -16 12 -17 16 -6 29 12 16 63 27 89 20 8 -1
17 -3 22 -3z m2425 -104 l7 -39 -36 29 c-41 34 -45 51 -13 56 29 5 33 0 42
-46z m-3380 -218 c37 -25 51 -40 53 -61 3 -29 -15 -56 -34 -50 -6 2 -17 -3
-24 -12 -15 -18 -76 -20 -87 -2 -13 20 -6 139 9 148 21 14 31 11 83 -23z
m1425 7 c0 -16 -6 -25 -15 -25 -18 0 -18 5 -5 31 14 26 20 24 20 -6z m-698
-30 c0 -5 -5 -11 -11 -13 -6 -2 -11 4 -11 13 0 9 5 15 11 13 6 -2 11 -8 11
-13z m-61 -134 c30 -31 40 -81 16 -81 -12 0 -56 18 -96 39 -21 11 -34 63 -18
73 21 14 67 0 98 -31z m-1202 -59 c11 -21 27 -44 35 -51 22 -19 20 -35 -10
-70 -36 -43 -67 -41 -115 9 -22 22 -39 48 -39 58 0 9 14 30 30 45 17 16 30 33
30 38 0 5 11 9 25 9 18 0 29 -9 44 -38z m1496 -17 c34 -33 33 -71 -2 -89 -19
-9 -35 -11 -52 -5 -21 8 -23 14 -17 47 3 20 6 45 6 55 0 25 37 21 65 -8z
m1495 -5 c0 -12 -38 -42 -43 -33 -10 16 12 53 28 47 8 -3 15 -9 15 -14z m-210
-574 c0 5 12 -4 26 -19 14 -16 24 -29 23 -31 -2 -1 -23 -12 -47 -24 -48 -25
-74 -27 -104 -11 -18 10 -25 8 -39 -10 -17 -21 -69 -30 -69 -11 0 6 6 10 13
10 8 0 8 3 1 8 -16 11 -25 41 -18 66 5 20 12 23 76 24 39 1 78 6 87 11 11 7
21 5 33 -6 10 -9 18 -12 18 -7z m-3351 -145 c20 -17 20 -20 6 -28 -19 -11 -75
-5 -75 8 0 5 5 9 10 9 6 0 9 3 9 8 -5 28 19 30 50 3z m3271 -1 c11 -7 7 -10
-17 -10 -18 0 -33 5 -33 10 0 13 30 13 50 0z m-3028 -253 c5 -25 3 -26 -32
-23 -38 4 -90 31 -90 47 0 8 47 32 80 41 16 5 34 -23 42 -65z m218 3 c29 -15
40 -27 40 -43 0 -27 -61 -103 -90 -112 -30 -9 -87 15 -99 42 -23 50 -9 87 39
110 58 27 62 27 110 3z m2456 -954 c11 -29 -15 -56 -52 -56 -63 0 -106 42 -61
60 36 14 107 12 113 -4z m-846 -27 c0 -5 -4 -9 -10 -9 -5 0 -10 7 -10 16 0 8
5 12 10 9 6 -3 10 -10 10 -16z m-1389 -149 c24 -13 24 -32 0 -54 -14 -13 -24
-14 -45 -7 -31 12 -33 24 -6 51 23 23 25 23 51 10z m2193 -90 c7 0 31 -17 53
-38 40 -36 41 -38 28 -70 -8 -17 -17 -32 -20 -32 -11 0 -50 44 -65 73 -8 16
-28 36 -45 44 -49 26 -58 49 -23 62 18 6 26 3 41 -15 10 -13 24 -24 31 -24z
m-794 -987 l0 -36 -19 22 c-21 24 -18 51 5 51 9 0 14 -12 14 -37z m-112 -213
c19 0 41 -30 35 -47 -7 -18 -58 -16 -73 2 -16 19 -4 73 13 56 6 -6 17 -11 25
-11z m-1779 -1652 c7 -24 24 -52 39 -64 35 -28 25 -45 -48 -88 -60 -35 -100
-46 -100 -26 0 6 -7 10 -15 10 -8 0 -15 5 -15 10 0 13 46 87 70 115 10 11 21
35 25 53 9 45 29 40 44 -10z m711 -68 c0 -5 -2 -10 -4 -10 -3 0 -8 5 -11 10
-3 6 -1 10 4 10 6 0 11 -4 11 -10z m-1114 -695 c-14 -32 -24 -31 -32 1 -7 29
12 49 32 33 9 -7 9 -16 0 -34z m8 -50 c3 -8 1 -15 -4 -15 -6 0 -10 7 -10 15 0
8 2 15 4 15 2 0 6 -7 10 -15z m36 -15 c0 -5 -4 -10 -10 -10 -5 0 -10 5 -10 10
0 6 5 10 10 10 6 0 10 -4 10 -10z m-690 -3050 c0 -5 -4 -10 -9 -10 -5 0 -16
-3 -25 -6 -11 -4 -16 -1 -16 10 0 10 9 16 25 16 14 0 25 -4 25 -10z"/>
<path d="M5080 9041 c0 -24 34 -22 38 2 2 12 -3 17 -17 17 -14 0 -21 -6 -21
-19z"/>
<path d="M8180 8991 c0 -12 5 -21 10 -21 6 0 10 6 10 14 0 8 -4 18 -10 21 -5
3 -10 -3 -10 -14z"/>
<path d="M8255 8931 c-11 -5 -23 -7 -27 -4 -5 2 -8 -7 -8 -21 0 -14 4 -26 9
-26 5 0 17 -20 27 -45 9 -25 22 -45 28 -45 7 0 18 -15 24 -34 9 -24 19 -34 35
-34 12 -1 36 -4 53 -7 20 -4 34 -3 39 4 10 16 -42 81 -65 81 -15 0 -17 6 -13
40 6 40 1 45 -34 41 -7 -1 -9 7 -6 20 9 32 -20 46 -62 30z m25 -15 c0 -3 -4
-8 -10 -11 -5 -3 -10 -1 -10 4 0 6 5 11 10 11 6 0 10 -2 10 -4z"/>
<path d="M5090 8875 c0 -14 4 -25 9 -25 5 0 16 11 25 25 16 24 16 25 -9 25
-20 0 -25 -5 -25 -25z"/>
<path d="M4905 8580 c-10 -16 17 -41 33 -31 9 6 8 12 -7 25 -14 12 -21 14 -26
6z"/>
<path d="M8681 8224 c0 -11 3 -14 6 -6 3 7 2 16 -1 19 -3 4 -6 -2 -5 -13z"/>
<path d="M8675 8190 c-8 -13 5 -79 16 -86 5 -3 12 2 15 11 5 12 9 13 14 5 5
-9 10 -6 15 10 5 15 1 28 -16 46 -24 26 -35 29 -44 14z"/>
<path d="M10206 8011 c-4 -5 -2 -12 3 -15 5 -4 12 -2 15 3 4 5 2 12 -3 15 -5
4 -12 2 -15 -3z"/>
<path d="M10140 7886 c-12 -37 0 -70 28 -81 10 -4 12 8 10 52 -3 66 -21 79
-38 29z"/>
<path d="M6118 6820 c-26 -35 -29 -49 -15 -67 6 -9 3 -15 -9 -19 -51 -16 -94
-38 -94 -48 0 -13 -40 -50 -40 -38 0 4 -7 -2 -15 -13 -12 -15 -28 -19 -78 -20
l-62 0 -1 55 c-1 47 -4 55 -20 55 -10 0 -22 4 -25 8 -3 5 -24 -1 -45 -12 -21
-12 -47 -18 -57 -15 -23 7 -48 -13 -40 -33 9 -23 -24 -43 -70 -43 -49 0 -73
-13 -92 -50 -9 -18 -27 -32 -48 -38 -19 -5 -57 -35 -93 -71 -53 -54 -62 -68
-73 -122 -13 -66 -49 -109 -100 -119 -20 -4 -26 -11 -26 -30 0 -21 7 -27 45
-36 27 -6 81 -8 133 -5 49 3 125 3 170 -1 45 -3 114 -7 152 -7 71 -1 86 -8
177 -73 14 -10 21 -9 41 10 27 25 65 28 93 7 10 -8 29 -15 41 -15 23 0 30 19
32 92 2 36 35 108 50 108 4 0 11 -4 17 -9 5 -4 33 -5 62 -2 51 6 54 8 76 50
12 24 28 48 36 52 84 45 122 57 197 61 63 4 87 9 108 26 23 18 41 22 105 22
42 0 99 7 126 15 54 16 326 26 340 12 4 -4 3 -20 -2 -35 -7 -20 -30 -38 -88
-68 -47 -25 -84 -51 -92 -66 -23 -43 -94 -44 -158 -3 -21 14 -45 17 -144 14
l-119 -4 -40 -36 c-23 -21 -55 -40 -73 -44 -18 -4 -48 -18 -67 -31 -20 -13
-49 -24 -64 -24 -27 0 -29 -3 -29 -41 0 -44 -29 -118 -55 -139 -19 -16 -49
-74 -58 -110 -5 -18 -17 -29 -44 -39 -59 -19 -86 -34 -106 -56 -17 -20 -17
-20 -40 8 -20 24 -30 27 -74 26 -27 -1 -56 2 -63 6 -26 16 -139 42 -163 38
-12 -2 -52 2 -87 10 -49 12 -111 14 -258 12 -106 -3 -197 -7 -203 -11 -6 -3
-7 -24 -3 -50 6 -40 3 -47 -20 -69 -29 -27 -55 -32 -73 -14 -14 14 -55 8 -61
-8 -2 -7 8 -17 21 -22 14 -6 38 -30 52 -55 15 -26 30 -46 34 -46 18 0 61 27
68 43 7 16 10 14 20 -12 10 -27 8 -35 -12 -66 -13 -19 -29 -52 -35 -74 -7 -25
-18 -42 -31 -46 -11 -4 -30 -16 -43 -28 -32 -31 -21 -66 32 -95 37 -21 42 -28
42 -58 0 -19 -4 -34 -9 -34 -18 0 -21 -31 -3 -37 9 -3 24 -12 32 -19 8 -7 17
-12 20 -12 15 3 80 -14 80 -21 0 -4 25 -15 55 -25 31 -9 75 -30 99 -46 23 -16
62 -33 85 -39 23 -5 50 -16 60 -25 11 -10 36 -16 69 -16 64 0 97 -12 133 -51
24 -26 35 -30 71 -29 72 3 78 1 98 -32 13 -22 20 -51 20 -88 0 -59 33 -154 63
-184 9 -10 17 -30 17 -45 0 -37 42 -131 74 -166 14 -15 28 -35 31 -44 3 -9 19
-25 36 -35 34 -20 84 -83 105 -133 12 -28 19 -33 48 -33 35 0 86 -32 86 -55 0
-14 97 -65 125 -65 10 0 33 -9 52 -21 27 -17 52 -21 131 -23 68 -2 107 -8 129
-19 43 -23 175 -24 197 -1 24 23 19 37 -16 54 -39 18 -52 58 -37 112 9 36 12
38 52 38 65 0 87 -22 140 -135 8 -16 17 -38 20 -47 4 -10 14 -18 23 -18 31 0
85 33 99 60 18 34 38 40 150 40 50 0 96 4 103 9 7 4 19 31 27 60 25 95 55 121
139 121 73 0 106 11 149 51 22 22 48 39 57 39 26 0 40 22 40 62 0 34 3 38 25
38 32 0 52 34 33 58 -36 48 -42 50 -61 25 -10 -12 -17 -33 -15 -45 2 -19 -1
-23 -22 -20 -28 2 -70 45 -70 70 1 9 11 30 24 46 18 21 35 29 69 33 39 5 46 3
52 -16 5 -18 14 -21 59 -21 46 0 54 3 67 26 7 14 25 36 39 47 14 12 32 37 39
55 7 17 17 32 21 32 5 0 11 13 15 30 4 16 17 38 30 48 14 11 26 35 31 58 8 45
19 71 44 99 22 24 44 119 46 195 3 133 49 184 116 127 14 -12 40 -30 57 -39
17 -9 36 -29 41 -43 6 -15 26 -43 45 -63 22 -23 35 -47 35 -64 0 -15 5 -30 12
-34 14 -9 40 26 35 46 -6 22 17 40 51 40 46 0 57 21 45 88 -6 31 -8 85 -5 120
l4 62 -43 45 c-47 49 -86 58 -123 30 -25 -19 -55 -19 -122 1 -60 17 -94 51
-94 94 0 15 -10 36 -25 50 -20 19 -25 33 -25 71 0 26 -5 51 -11 54 -20 13 -59
118 -59 160 0 34 -5 46 -25 59 -15 10 -27 30 -31 51 -4 22 -16 42 -32 53 -14
9 -44 35 -68 57 -79 74 -89 82 -111 89 -13 4 -29 13 -35 20 -38 36 -58 43 -96
33 -38 -10 -108 8 -247 61 -63 25 -72 57 -27 102 l30 29 41 -16 c45 -17 86 -8
97 22 8 19 -41 60 -88 75 -21 6 -38 14 -38 19 0 4 -11 20 -25 35 -21 23 -33
27 -68 25 -53 -3 -63 2 -70 41 -5 25 -11 30 -35 30 -16 0 -37 9 -47 20 -22 24
-38 25 -76 3 -28 -16 -30 -16 -60 6 -21 15 -38 21 -52 16 -70 -21 -90 -23
-121 -10 -29 12 -40 12 -87 -4 -179 -59 -189 -61 -209 -36 -7 8 -25 15 -41 15
-16 0 -29 5 -29 10 0 6 -6 10 -13 10 -7 0 -29 8 -50 19 -22 11 -71 21 -121 26
l-83 7 -37 -32 -36 -32 -40 16 c-45 18 -96 21 -105 6 -10 -17 -34 1 -37 28 -3
23 -8 27 -40 30 -31 3 -40 -1 -60 -28z m-488 -320 c0 -5 -4 -10 -10 -10 -5 0
-10 5 -10 10 0 6 5 10 10 10 6 0 10 -4 10 -10z m1858 -29 c-2 -10 -15 -17 -36
-19 -35 -4 -43 13 -15 33 22 16 55 7 51 -14z m-83 -12 c5 -6 5 -9 -3 -9 -7 0
-12 -8 -12 -17 0 -38 -36 -79 -81 -92 -26 -8 -45 -9 -47 -3 -1 5 -11 25 -21
45 -18 35 -18 37 1 68 l19 32 67 -7 c37 -4 71 -11 77 -17z m-778 -501 c-3 -8
-6 -5 -6 6 -1 11 2 17 5 13 3 -3 4 -12 1 -19z m531 -32 c21 -20 30 -243 12
-286 -7 -16 -15 -30 -19 -30 -3 0 -12 -13 -19 -29 -10 -22 -18 -28 -33 -24
-11 3 -23 13 -27 22 -9 24 -23 31 -68 31 -27 0 -51 7 -68 21 -19 15 -34 19
-52 15 -40 -11 -94 3 -94 24 0 10 6 20 14 23 12 5 12 12 0 47 -18 53 -13 69
33 100 21 14 44 33 51 42 7 9 36 24 65 32 28 8 68 19 87 25 44 12 99 6 118
-13z m-495 -72 c29 -9 50 -62 43 -110 -3 -24 -1 -46 4 -49 6 -3 10 -19 10 -35
0 -26 -7 -33 -61 -60 -49 -24 -74 -30 -124 -30 -35 0 -67 5 -70 10 -9 15 -36
12 -57 -7 -16 -14 -26 -15 -71 -6 -39 8 -56 8 -67 -1 -8 -6 -29 -19 -46 -28
-29 -16 -31 -16 -58 7 -36 31 -31 60 9 61 91 2 93 6 110 179 2 22 4 44 4 48 1
5 13 7 29 5 20 -2 27 -9 28 -26 2 -35 14 -39 35 -13 11 14 31 26 43 27 13 1
41 12 62 23 32 17 50 20 99 15 33 -3 68 -8 78 -10z m-1443 -98 c0 -3 -4 -8
-10 -11 -5 -3 -10 -1 -10 4 0 6 5 11 10 11 6 0 10 -2 10 -4z m730 -50 c0 -11
-19 -15 -25 -6 -3 5 1 10 9 10 9 0 16 -2 16 -4z m-19 -36 c5 0 9 -9 9 -19 0
-11 10 -27 21 -35 29 -20 59 -71 59 -100 0 -17 -9 -27 -29 -35 -36 -15 -49
-44 -61 -134 -11 -74 -44 -128 -69 -112 -6 3 -28 39 -47 78 -34 67 -36 76 -32
147 3 44 11 85 20 100 9 14 19 39 23 57 9 43 45 68 83 57 8 -2 18 -4 23 -4z
m1227 -240 c32 0 31 -82 -1 -102 -25 -16 -86 -9 -97 11 -25 48 15 107 65 96
11 -3 26 -5 33 -5z m-589 -567 c11 -10 27 -44 36 -77 8 -32 27 -74 41 -93 28
-37 91 -71 147 -79 43 -7 105 20 117 51 11 30 50 35 50 7 0 -10 -5 -23 -12
-30 -22 -22 6 -58 49 -65 43 -7 89 -47 80 -71 -3 -8 -39 -24 -79 -37 -40 -12
-77 -26 -82 -31 -6 -4 -32 -8 -59 -8 -33 0 -58 -7 -76 -20 -24 -16 -38 -18
-99 -13 -46 4 -72 10 -72 18 0 11 -41 35 -60 35 -5 0 -30 23 -56 50 -26 28
-51 50 -56 50 -5 0 -18 9 -30 20 -12 11 -28 20 -36 20 -10 0 -13 11 -11 40 3
33 -1 43 -21 57 -51 35 -60 48 -60 80 0 69 77 111 206 112 45 1 68 -4 83 -16z"/>
<path d="M6896 5761 c-3 -5 1 -14 9 -21 12 -10 15 -10 15 3 0 19 -16 31 -24
18z"/>
<path d="M6940 5711 c0 -21 23 -44 34 -34 3 4 12 -1 19 -10 6 -8 21 -17 32
-19 16 -2 20 3 20 22 0 22 -4 25 -28 22 -21 -3 -33 2 -44 17 -18 26 -33 27
-33 2z"/>
<path d="M10402 6408 c-7 -7 -12 -17 -12 -22 0 -6 5 -4 10 4 8 13 10 12 10 -2
0 -11 -7 -18 -18 -18 -31 0 -81 -30 -76 -45 7 -17 62 -27 99 -17 31 9 32 13
19 80 -7 35 -13 39 -32 20z"/>
<path d="M8865 6356 c-13 -19 -21 -23 -34 -17 -31 16 -97 21 -114 8 -10 -7
-20 -33 -23 -61 -4 -27 -19 -67 -33 -89 l-26 -39 -55 5 c-72 8 -90 -2 -67 -37
24 -36 21 -64 -10 -109 -24 -34 -28 -50 -28 -111 1 -80 21 -184 41 -205 9 -10
53 -16 146 -22 148 -8 158 -5 158 55 0 34 26 79 56 100 25 17 95 28 113 17 11
-7 13 -25 8 -86 -4 -42 -12 -86 -19 -98 -6 -12 -11 -50 -10 -84 2 -56 0 -65
-28 -96 -23 -26 -30 -44 -30 -74 0 -28 -7 -49 -25 -69 -14 -16 -25 -34 -25
-40 0 -38 25 -128 50 -181 26 -56 29 -74 31 -172 1 -60 -1 -114 -5 -119 -7
-12 -45 -4 -67 15 -9 8 -32 13 -52 11 -33 -2 -34 -3 -24 -27 18 -44 32 -52 96
-58 44 -4 61 -10 61 -20 0 -8 18 -36 40 -62 35 -41 40 -53 40 -98 0 -37 5 -54
20 -68 15 -14 20 -31 20 -70 0 -106 43 -227 112 -317 23 -29 30 -53 39 -119 5
-45 12 -86 15 -90 4 -7 8 -388 5 -491 0 -27 -7 -53 -16 -62 -9 -8 -27 -40 -40
-71 -14 -30 -30 -55 -36 -55 -18 0 -80 -52 -94 -80 -7 -14 -17 -55 -21 -91 -3
-35 -12 -73 -18 -84 -6 -11 -11 -67 -12 -125 0 -110 -14 -188 -39 -226 -8 -13
-15 -33 -15 -44 0 -12 -7 -35 -16 -52 -9 -17 -20 -58 -25 -92 -15 -93 -16 -97
-39 -156 -12 -30 -28 -92 -35 -138 -8 -46 -21 -92 -29 -101 -9 -10 -19 -33
-22 -52 -4 -19 -11 -40 -17 -47 -6 -7 -11 -46 -12 -85 -1 -73 -19 -147 -35
-147 -5 0 -12 -10 -16 -22 -3 -13 -12 -30 -19 -38 -7 -8 -16 -35 -20 -60 -19
-126 -24 -149 -39 -194 -9 -27 -20 -54 -26 -61 -5 -6 -6 -16 -2 -20 4 -5 2 -5
-5 -2 -22 13 -42 -5 -48 -44 -5 -29 -16 -46 -46 -70 -36 -28 -39 -35 -39 -80
0 -46 -2 -50 -40 -75 -22 -15 -41 -34 -41 -43 -1 -9 -3 -30 -5 -48 -1 -18 -9
-42 -18 -55 -20 -29 -21 -87 -1 -94 20 -8 19 -30 -3 -46 -10 -7 -27 -35 -37
-61 -16 -41 -17 -66 -11 -179 6 -118 4 -133 -13 -162 -11 -17 -24 -51 -31 -76
-6 -25 -20 -57 -30 -71 -10 -14 -26 -57 -35 -95 -10 -38 -26 -81 -36 -96 -11
-14 -19 -29 -19 -32 0 -3 536 -6 1190 -6 l1190 0 0 923 0 924 -59 64 c-33 35
-62 74 -66 86 -3 12 -19 44 -35 70 -16 26 -36 62 -44 79 -8 17 -19 34 -24 38
-6 3 -14 21 -18 39 -3 17 -13 41 -20 52 -8 11 -14 30 -14 43 0 13 -11 38 -24
55 -13 18 -30 52 -36 77 -16 60 -53 130 -80 155 -13 11 -29 34 -37 50 -32 68
-49 95 -70 115 -13 11 -23 27 -23 36 0 8 -16 37 -35 65 -19 28 -35 56 -35 62
0 6 -8 20 -19 31 -10 12 -24 44 -31 71 -18 67 -45 105 -75 105 -28 0 -32 12
-37 111 -3 56 -8 72 -35 105 -17 22 -35 58 -38 79 -10 53 -20 63 -71 76 -24 6
-44 14 -44 18 0 3 -14 21 -30 40 -17 18 -30 37 -30 41 0 4 -31 41 -70 81 -38
41 -70 77 -70 81 0 7 60 32 76 31 13 0 11 69 -4 177 -5 36 -7 91 -4 122 3 41
0 67 -12 90 -19 40 -51 78 -64 78 -5 0 -17 11 -25 24 -13 20 -14 29 -4 50 7
14 14 26 17 26 3 0 11 4 19 9 11 7 8 16 -14 45 -22 29 -34 36 -61 36 -35 0
-53 15 -37 31 7 7 27 0 59 -17 43 -25 60 -28 132 -28 l84 0 -6 -30 c-6 -27 -2
-35 26 -58 31 -25 32 -27 15 -45 -9 -11 -17 -24 -17 -30 0 -5 -9 -20 -20 -33
-24 -28 -25 -34 -5 -54 20 -19 19 -35 -2 -43 -53 -20 -54 -57 -2 -61 49 -3
129 -28 167 -52 26 -16 32 -26 32 -53 0 -33 -11 -49 -59 -86 -17 -13 -25 -28
-25 -53 -1 -32 -4 -35 -31 -36 -16 0 -31 -6 -34 -13 -2 -7 -15 -23 -28 -35
-27 -25 -23 -45 13 -64 13 -8 27 -24 30 -37 7 -26 49 -63 72 -63 15 0 105 -53
128 -75 7 -6 37 -17 68 -25 50 -12 63 -11 110 3 66 21 90 21 106 1 26 -30 50
-37 71 -18 10 9 19 23 19 29 0 7 16 25 35 39 39 30 44 53 16 83 -19 20 -25 40
-22 75 1 23 86 78 121 78 47 0 91 65 100 149 9 84 35 163 60 186 12 11 20 31
20 51 0 18 5 36 11 40 7 4 10 45 7 123 -4 101 -2 118 14 135 17 18 18 46 18
353 l0 333 -39 0 c-41 0 -91 31 -91 56 0 17 28 52 53 65 13 7 23 7 32 -1 31
-26 38 -6 36 99 -2 105 -9 134 -47 186 -11 17 -24 37 -27 46 -4 13 -114 79
-131 79 -2 0 -7 -18 -11 -39 -5 -30 -12 -41 -31 -45 -15 -4 -26 -16 -30 -34
-4 -15 -12 -34 -20 -42 -7 -8 -16 -27 -19 -43 -14 -53 -79 -63 -144 -20 -36
23 -41 31 -41 64 0 46 -16 92 -29 84 -29 -17 -42 90 -26 213 10 77 -9 102 -78
102 -36 0 -60 6 -77 20 -14 11 -30 20 -37 20 -7 0 -29 9 -50 19 -34 18 -49 19
-148 11 -63 -4 -119 -4 -133 1 -40 15 -80 11 -91 -10 -21 -38 -107 -52 -156
-27 -33 17 -45 33 -45 61 0 17 -7 20 -58 22 -83 3 -136 24 -140 55 -3 22 2 28
34 38 24 8 62 10 105 6 81 -7 114 3 123 39 5 21 -1 38 -29 79 -54 78 -94 101
-179 102 -39 0 -81 4 -93 8 -17 5 -26 1 -38 -18z m775 -766 c0 -21 -38 -66
-47 -56 -8 7 28 76 39 76 5 0 8 -9 8 -20z m661 -303 c-8 -21 -58 -54 -67 -44
-3 2 -6 17 -7 33 -2 22 3 29 23 34 41 10 60 1 51 -23z m-207 -910 c-7 -24 -53
-77 -66 -77 -18 0 -6 37 24 72 34 39 53 41 42 5z m306 -86 c0 -23 -16 -36 -25
-21 -9 14 1 40 15 40 5 0 10 -9 10 -19z m-370 -12 c0 -6 12 -25 26 -44 l25
-34 -18 -51 c-10 -28 -33 -67 -50 -85 -29 -31 -32 -39 -27 -77 7 -53 -26 -133
-82 -195 -39 -45 -67 -54 -78 -27 -11 28 -6 90 9 120 8 16 21 59 30 94 14 57
48 136 64 150 13 11 71 129 71 144 0 9 7 16 15 16 8 0 15 -5 15 -11z m-642
-4071 c-6 -18 -28 -21 -28 -4 0 9 7 16 16 16 9 0 14 -5 12 -12z m-826 -91 c44
-16 38 -34 -18 -53 -37 -13 -74 -5 -74 16 0 10 40 50 49 50 3 0 23 -6 43 -13z
m848 -45 c0 -11 -9 -27 -20 -37 -19 -17 -20 -17 -21 1 0 18 -1 18 -9 -1 -7
-18 -8 -18 -15 7 -9 36 0 48 36 48 22 0 29 -5 29 -18z"/>
<path d="M10473 6274 c-3 -8 -16 -20 -29 -25 -13 -4 -24 -17 -24 -27 0 -14 9
-18 38 -19 34 -2 38 1 48 31 5 18 8 38 6 44 -5 17 -32 15 -39 -4z"/>
<path d="M4385 6021 c-3 -6 4 -9 15 -8 11 1 20 5 20 9 0 11 -28 10 -35 -1z"/>
<path d="M1343 5713 c-47 -32 -12 -62 67 -58 24 2 45 7 47 11 6 21 -49 65 -79
63 -7 0 -23 -7 -35 -16z"/>
<path d="M1163 5663 c-22 -8 -14 -39 13 -52 34 -15 45 -7 31 24 -13 27 -25 34
-44 28z"/>
<path d="M3582 5444 c4 -21 22 -23 26 -1 2 10 -3 17 -13 17 -10 0 -15 -6 -13
-16z"/>
<path d="M854 5186 c-9 -24 10 -68 34 -77 38 -14 72 43 40 68 -25 20 -68 24
-74 9z"/>
<path d="M8735 5049 c-10 -15 5 -100 16 -94 12 8 12 105 0 105 -6 0 -13 -5
-16 -11z"/>
<path d="M887 4958 c-4 -12 -1 -28 5 -35 12 -15 18 -16 37 -4 12 8 12 13 -3
35 -20 32 -32 33 -39 4z"/>
<path d="M2482 4585 c0 -16 2 -22 5 -12 2 9 2 23 0 30 -3 6 -5 -1 -5 -18z"/>
<path d="M9470 4385 c0 -8 5 -15 10 -15 6 0 10 7 10 15 0 8 -4 15 -10 15 -5 0
-10 -7 -10 -15z"/>
<path d="M9398 4343 c6 -2 18 -2 25 0 6 3 1 5 -13 5 -14 0 -19 -2 -12 -5z"/>
<path d="M9455 4196 c-19 -14 -19 -15 -2 -22 22 -8 30 -1 25 21 -3 14 -5 14
-23 1z"/>
<path d="M7365 3894 c-14 -10 -19 -26 -19 -55 2 -52 9 -57 39 -29 31 29 39 54
25 80 -13 24 -18 24 -45 4z"/>
<path d="M7301 3744 c0 -11 3 -14 6 -6 3 7 2 16 -1 19 -3 4 -6 -2 -5 -13z"/>
<path d="M8015 3519 c-54 -7 -102 -27 -130 -55 -13 -14 -15 -27 -10 -62 4 -25
10 -52 15 -61 4 -9 13 -29 19 -44 6 -15 19 -30 28 -33 10 -3 30 -12 45 -20 32
-17 69 -18 67 -1 -4 29 2 45 19 51 63 22 77 24 133 13 52 -9 64 -8 90 7 29 17
30 17 107 -20 42 -21 97 -39 122 -42 39 -3 49 0 75 23 l29 28 -39 33 c-22 19
-54 36 -72 40 -25 5 -33 12 -38 36 -5 19 -16 33 -33 39 -15 6 -58 26 -97 44
-67 33 -75 34 -175 32 -58 0 -128 -4 -155 -8z"/>
<path d="M7332 3472 c-12 -8 -22 -20 -22 -27 0 -15 49 -50 70 -50 8 0 22 -19
31 -44 24 -67 96 -134 173 -162 53 -20 69 -35 61 -58 -6 -16 11 -31 36 -31 16
0 49 59 49 88 0 9 -25 42 -56 72 -53 52 -56 56 -50 93 6 34 3 42 -24 67 -17
16 -43 30 -58 32 -27 3 -92 -14 -124 -32 -24 -14 -28 -13 -28 6 0 9 -8 26 -18
38 -16 21 -19 22 -40 8z"/>
<path d="M2472 3428 c-5 -7 -13 -24 -17 -38 -4 -14 -18 -39 -31 -56 -36 -47
-33 -121 6 -176 17 -22 30 -47 30 -54 0 -18 46 -29 73 -17 19 9 21 18 23 114
1 57 5 127 9 155 6 40 4 54 -10 67 -19 20 -68 22 -83 5z"/>
<path d="M8130 3070 c0 -13 5 -20 13 -17 6 2 12 10 12 17 0 7 -6 15 -12 18 -8
2 -13 -5 -13 -18z"/>
<path d="M7920 3015 c-18 -22 -21 -82 -5 -89 30 -11 58 70 32 92 -11 10 -17 9
-27 -3z"/>
<path d="M7840 2870 c0 -5 7 -7 15 -4 8 4 15 8 15 10 0 2 -7 4 -15 4 -8 0 -15
-4 -15 -10z"/>
<path d="M8292 2732 c-33 -5 -51 -47 -29 -69 14 -15 19 -15 52 1 26 13 35 23
33 37 -2 11 -7 19 -12 19 -5 -1 -12 2 -15 7 -3 4 -16 7 -29 5z"/>
<path d="M7850 2650 c0 -11 2 -20 4 -20 2 0 11 -3 20 -6 11 -4 16 0 16 14 0
11 -7 23 -16 26 -23 9 -24 8 -24 -14z"/>
<path d="M6700 2389 c0 -20 4 -29 13 -26 6 2 11 15 9 28 -2 19 -1 21 7 9 9
-13 12 -13 28 3 16 16 16 17 -20 17 -35 0 -37 -2 -37 -31z"/>
<path d="M7932 2373 c-6 -3 -10 -8 -7 -13 9 -14 -24 -39 -66 -50 -22 -6 -42
-17 -45 -25 -10 -26 -34 -24 -64 5 -37 36 -50 37 -80 5 -26 -28 -56 -31 -84
-10 -11 8 -17 15 -13 15 4 0 3 9 -3 20 -13 25 -36 25 -95 0 -34 -15 -50 -28
-60 -54 -16 -37 -40 -50 -77 -41 -13 3 -43 2 -66 -3 -33 -8 -50 -7 -73 5 -21
11 -42 13 -67 8 -21 -4 -48 -6 -62 -6 -14 1 -57 -15 -97 -35 -66 -34 -75 -36
-102 -24 -34 14 -116 0 -158 -26 -12 -8 -48 -14 -80 -14 -44 0 -62 5 -80 21
-20 19 -23 20 -29 6 -7 -20 -1 -116 10 -139 5 -12 2 -18 -13 -23 -12 -3 -21
-15 -21 -26 0 -10 -7 -19 -15 -19 -9 0 -20 -11 -26 -24 -9 -19 -7 -29 6 -50
10 -14 21 -26 26 -26 18 0 58 23 53 31 -3 5 0 9 5 9 6 0 11 -4 11 -10 0 -5 13
-10 29 -10 19 0 30 6 34 18 2 11 17 21 34 25 17 3 44 17 61 31 22 20 41 26 75
26 25 0 58 5 74 12 15 6 53 13 83 14 30 1 102 7 160 13 58 5 154 10 214 11 98
0 112 -2 132 -21 15 -14 43 -23 87 -29 35 -4 75 -14 88 -23 13 -8 54 -25 92
-37 37 -12 67 -26 67 -31 0 -22 62 -39 148 -39 53 0 110 -6 143 -16 80 -25
171 -24 199 1 18 17 39 20 132 24 126 4 137 12 90 65 -39 44 -57 133 -33 159
12 12 0 58 -17 64 -8 4 -34 -3 -56 -14 -23 -12 -49 -24 -59 -27 -25 -8 -56 10
-67 40 -8 20 -16 24 -51 24 -81 0 -133 41 -141 110 -3 21 1 24 20 22 23 -3 27
4 13 27 -6 9 -26 12 -72 10 -57 -4 -64 -2 -75 19 -14 28 -16 30 -32 25z m132
-178 c-11 -8 -30 -15 -43 -15 -20 0 -21 2 -11 15 7 8 21 15 31 15 10 0 21 5
25 12 6 9 9 9 12 -1 2 -7 -4 -19 -14 -26z m61 -25 c3 -5 -1 -10 -9 -10 -9 0
-16 5 -16 10 0 6 4 10 9 10 6 0 13 -4 16 -10z"/>
<path d="M6414 2075 c-7 -17 4 -37 17 -30 12 8 12 45 -1 45 -6 0 -13 -7 -16
-15z"/>
<path d="M6377 1783 c-10 -9 -9 -73 1 -73 4 0 20 11 37 24 25 20 28 26 16 40
-14 16 -42 21 -54 9z"/>
<path d="M6527 1746 c-6 -16 1 -26 19 -26 7 0 10 8 7 20 -6 23 -19 26 -26 6z"/>
<path d="M1090 1580 c0 -5 12 -10 28 -10 21 0 24 2 12 10 -20 13 -40 13 -40 0z"/>
<path d="M7028 1540 c-10 -6 -14 -18 -11 -30 4 -14 0 -20 -12 -20 -9 0 -19 9
-22 20 -4 14 -17 21 -48 26 -24 3 -48 3 -54 -1 -24 -14 15 -95 46 -95 9 0 13
-11 11 -33 -2 -40 7 -57 31 -57 27 0 42 22 28 41 -7 9 -17 18 -24 20 -13 4 65
92 98 109 11 6 17 15 14 21 -8 12 -35 11 -57 -1z"/>
<path d="M7520 1531 c0 -6 5 -13 10 -16 6 -3 10 -1 10 5 0 6 5 8 10 5 6 -3 10
-15 10 -26 0 -26 29 -69 46 -69 21 0 26 -22 14 -54 -9 -24 -14 -27 -36 -22
-14 4 -35 16 -47 26 -11 11 -24 20 -27 20 -7 0 -35 80 -32 93 4 15 -35 6 -51
-11 -21 -23 -22 -38 -2 -46 19 -7 19 -40 0 -56 -13 -10 -12 -15 3 -35 16 -22
19 -23 41 -8 17 11 26 12 34 4 8 -8 6 -11 -8 -11 -14 0 -16 -3 -7 -12 8 -8 15
-8 27 2 12 10 15 10 15 -1 0 -8 11 -31 25 -51 14 -20 25 -44 25 -52 0 -18 -29
-35 -49 -28 -8 3 -12 -1 -9 -9 3 -8 -6 -31 -19 -51 -13 -21 -20 -39 -16 -39 5
-1 -10 -5 -32 -8 -56 -8 -55 -30 1 -70 42 -29 52 -32 93 -26 34 5 56 16 84 43
34 34 43 37 96 38 82 2 111 11 111 33 0 19 62 81 81 81 6 0 20 -5 32 -12 59
-31 187 12 187 64 0 11 7 18 20 18 13 0 20 7 20 19 0 11 8 22 18 25 32 11 82
64 82 89 0 13 -10 34 -21 46 -20 21 -27 22 -73 16 -28 -5 -67 -9 -87 -9 -20
-1 -43 -7 -51 -14 -18 -14 -81 -18 -118 -8 -17 5 -21 5 -12 -2 11 -7 8 -11
-10 -15 -40 -11 -47 -8 -72 32 -30 47 -63 56 -113 30 -37 -19 -57 -15 -82 15
-7 8 -26 18 -42 21 -16 4 -29 13 -29 20 0 7 -7 16 -16 19 -22 9 -34 7 -34 -3z
m400 -214 c0 -57 -41 -71 -60 -21 -14 35 -2 54 31 54 26 0 29 -3 29 -33z"/>
<path d="M7319 1438 c-29 -32 -38 -71 -19 -83 5 -3 17 7 27 22 10 15 28 39 40
52 12 14 20 28 17 33 -10 17 -36 7 -65 -24z"/>
<path d="M6950 1330 c0 -6 7 -10 15 -10 8 0 15 2 15 4 0 2 -7 6 -15 10 -8 3
-15 1 -15 -4z"/>
<path d="M7235 1330 c-3 -5 -1 -18 4 -27 11 -20 12 -19 16 15 2 23 -9 30 -20
12z"/>
<path d="M7350 1276 c-7 -14 -21 -27 -31 -29 -11 -3 -17 -1 -14 3 3 4 -4 6
-15 3 -12 -3 -31 -23 -43 -45 -24 -42 -52 -54 -94 -42 -16 4 -34 6 -40 5 -15
-2 -17 11 -4 25 6 5 -7 22 -35 43 -57 43 -112 48 -130 12 -7 -13 -18 -27 -26
-32 -10 -6 -10 -13 -2 -26 8 -13 26 -19 68 -21 49 -3 56 -6 56 -23 0 -12 -10
-29 -21 -38 l-22 -18 23 -26 c14 -16 28 -23 34 -18 6 4 47 14 91 21 44 7 90
20 102 28 14 9 40 13 68 10 43 -3 46 -1 61 30 13 27 21 33 43 31 17 -2 35 5
50 20 26 26 22 51 -9 51 -12 0 -20 7 -20 17 0 13 -3 14 -12 5 -19 -19 -48 -15
-48 7 0 30 -15 33 -30 7z"/>
<path d="M7290 995 c0 -9 6 -12 15 -9 8 4 15 10 15 15 0 5 -7 9 -15 9 -8 0
-15 -7 -15 -15z"/>
<path d="M7350 946 c0 -23 4 -26 36 -26 36 0 36 1 22 23 -9 12 -25 23 -37 25
-17 3 -21 -2 -21 -22z"/>
<path d="M3885 889 c-51 -47 -57 -74 -19 -91 21 -10 31 -9 52 2 53 31 77 130
31 130 -11 0 -40 -19 -64 -41z"/>
<path d="M7370 900 c0 -5 5 -10 10 -10 6 0 10 5 10 10 0 6 -4 10 -10 10 -5 0
-10 -4 -10 -10z"/>
<path d="M4177 814 c-10 -11 -8 -44 3 -44 5 0 7 -7 4 -15 -9 -22 -24 -8 -24
22 0 36 -14 19 -16 -19 -1 -19 -11 -39 -28 -53 -26 -23 -36 -60 -13 -52 6 2
20 0 30 -5 13 -7 19 -4 23 9 15 46 16 48 21 36 8 -21 31 -15 49 12 12 18 14
31 7 52 -5 15 -13 26 -17 23 -4 -3 -13 5 -20 18 -7 12 -15 19 -19 16z"/>
<path d="M3790 790 c0 -11 7 -20 15 -20 8 0 15 9 15 20 0 11 -7 20 -15 20 -8
0 -15 -9 -15 -20z"/>
<path d="M3875 705 c-16 -18 -33 -31 -37 -29 -5 3 -8 -2 -8 -10 0 -9 16 -22
35 -30 19 -8 35 -19 35 -24 0 -5 11 -21 25 -36 24 -26 26 -26 55 -11 39 20 70
54 70 77 0 17 -46 48 -73 48 -8 0 -22 11 -31 25 -21 32 -34 30 -71 -10z"/>
<path d="M4580 718 c0 -12 7 -29 15 -38 19 -21 1 -74 -38 -112 -52 -52 -30
-72 90 -84 38 -4 76 -11 86 -16 13 -6 17 -5 17 7 0 9 -6 17 -12 19 -7 2 -33 9
-57 16 -29 8 -40 15 -32 20 9 5 10 10 2 14 -17 11 -13 41 10 70 21 27 18 46
-7 46 -8 0 -14 7 -14 15 0 8 -4 15 -10 15 -5 0 -10 6 -10 13 0 7 -9 18 -20 25
-18 11 -20 10 -20 -10z"/>
<path d="M5024 655 c-10 -8 -14 -15 -9 -16 23 -2 72 -9 98 -14 39 -7 36 20 -4
34 -43 15 -61 14 -85 -4z"/>
<path d="M4383 648 c-35 -17 -39 -46 -9 -77 37 -38 35 -82 -5 -115 -17 -14
-41 -26 -55 -26 -25 0 -36 -29 -11 -31 71 -6 90 -11 117 -30 38 -29 38 -48 0
-56 -17 -3 -28 -8 -25 -11 3 -3 -2 -14 -12 -24 -15 -17 -15 -19 0 -36 10 -10
17 -23 17 -29 0 -17 52 -22 92 -8 50 17 126 8 141 -16 7 -11 20 -19 31 -19 25
0 56 -28 50 -45 -3 -8 6 -21 20 -30 14 -10 26 -24 26 -33 0 -13 -3 -12 -20 3
-11 10 -20 14 -20 9 0 -16 -84 -3 -105 16 -31 27 -61 30 -80 10 -16 -17 -15
-20 9 -35 15 -10 29 -28 32 -41 6 -23 9 -24 118 -24 l111 0 19 34 c10 19 25
37 32 40 8 3 14 17 14 32 0 20 -4 25 -16 20 -14 -5 -15 -4 -5 8 19 23 5 35
-33 29 -36 -6 -96 19 -96 40 0 7 -9 18 -20 25 -11 7 -20 22 -20 34 0 12 -10
32 -22 45 -18 19 -20 27 -10 48 8 17 8 26 1 31 -6 3 -9 19 -7 35 6 38 -13 37
-31 -1 -7 -17 -24 -38 -37 -47 -23 -15 -26 -14 -50 12 -22 24 -25 35 -23 87 2
57 1 60 -29 78 -35 22 -61 88 -39 102 19 12 -24 9 -50 -4z"/>
<path d="M5258 637 c-3 -15 0 -24 9 -24 7 0 13 11 13 24 0 30 -16 30 -22 0z"/>
<path d="M3335 510 c-10 -17 12 -37 25 -24 8 8 6 15 -4 23 -10 9 -16 9 -21 1z"/>
<path d="M4935 508 c-3 -8 -4 -34 -3 -59 3 -43 2 -44 -26 -42 -17 1 -40 13
-53 28 -23 25 -57 32 -80 17 -28 -18 -45 -123 -23 -137 6 -3 10 -19 10 -36 0
-38 31 -69 62 -62 35 9 48 23 48 51 0 24 1 24 19 8 13 -12 36 -18 66 -18 39 0
44 -2 34 -14 -17 -21 2 -39 28 -26 18 10 48 2 41 -12 -1 -3 12 -15 30 -26 26
-16 32 -26 32 -54 l0 -34 -35 11 c-25 7 -35 16 -36 31 0 12 -3 15 -6 9 -2 -7
-11 -13 -19 -13 -18 0 -18 -25 1 -44 8 -8 15 -18 15 -23 0 -5 6 -21 13 -36 16
-35 55 -36 87 -2 22 23 22 26 7 43 -22 24 -21 32 1 32 22 0 57 -35 48 -48 -3
-5 2 -9 12 -8 11 0 18 -7 20 -21 3 -21 9 -23 65 -23 l62 0 2 32 c1 17 -2 37
-8 44 -11 13 -4 54 9 54 4 0 5 22 4 49 -3 44 -1 50 19 56 33 11 49 -16 38 -63
-8 -35 -6 -39 37 -79 25 -24 49 -43 55 -43 5 0 9 -11 9 -25 l0 -25 130 0 c109
0 130 2 130 15 0 8 -7 15 -15 15 -8 0 -15 5 -15 10 0 22 47 10 58 -15 11 -23
17 -25 77 -25 58 0 65 2 67 20 0 11 1 23 2 28 1 4 -6 17 -15 29 -14 20 -47 33
-91 36 -10 1 -18 5 -18 9 0 15 -45 48 -58 43 -16 -6 -47 26 -86 90 -33 54 -86
85 -97 57 -4 -9 -4 -21 -2 -25 3 -5 6 -29 8 -55 l4 -47 -16 27 c-15 24 -54 41
-118 50 -14 2 -21 12 -23 33 -2 17 -13 37 -24 46 -21 16 -58 15 -58 -2 0 -5
-11 -9 -23 -9 -18 0 -28 10 -42 41 l-19 41 -51 -5 c-27 -2 -61 -1 -74 4 -29
12 -47 -1 -55 -41 -4 -24 -11 -30 -31 -30 -14 0 -25 4 -25 9 0 5 -8 8 -17 7
-26 -2 -30 51 -6 70 10 7 26 14 35 14 21 0 30 14 22 34 -9 22 -30 33 -86 41
-37 6 -49 4 -53 -7z m355 -258 c0 -5 -5 -10 -11 -10 -5 0 -7 5 -4 10 3 6 8 10
11 10 2 0 4 -4 4 -10z"/>
<path d="M4097 499 c-9 -6 -17 -14 -17 -19 0 -16 30 -11 37 5 8 21 1 25 -20
14z"/>
<path d="M5670 420 c0 -5 7 -10 16 -10 8 0 12 5 9 10 -3 6 -10 10 -16 10 -5 0
-9 -4 -9 -10z"/>
<path d="M4096 214 c-20 -36 -23 -50 -15 -66 13 -24 32 -19 39 11 6 27 22 29
31 4 7 -16 8 -16 8 3 1 12 8 24 15 27 13 5 13 10 0 36 -22 45 -48 40 -78 -15z"/>
<path d="M5887 222 c-21 -23 -13 -32 25 -32 25 0 29 4 26 22 -4 29 -29 34 -51
10z"/>
<path d="M4940 184 c-13 -13 -32 -24 -42 -24 -12 0 -16 -8 -16 -32 1 -33 15
-51 30 -42 4 3 5 16 2 30 -5 21 -2 25 25 30 37 8 54 25 45 48 -8 21 -14 20
-44 -10z"/>
<path d="M4255 126 c-60 -49 -65 -56 -65 -91 l0 -35 61 0 c54 0 61 2 56 18
-11 41 -11 46 1 48 6 1 17 2 23 3 16 2 6 65 -11 73 -25 11 -34 9 -65 -16z"/>
<path d="M6156 115 c-28 -17 -44 -21 -52 -14 -7 6 -34 9 -61 7 -46 -3 -48 -4
-54 -38 -3 -19 -10 -43 -14 -52 -7 -17 10 -18 274 -18 155 0 281 3 281 8 -1
20 -55 42 -120 48 -39 4 -77 12 -83 18 -30 28 -95 66 -113 66 -10 0 -37 -12
-58 -25z"/>
<path d="M4380 97 l-25 -11 33 -4 c40 -4 66 4 57 18 -8 13 -33 12 -65 -3z"/>
<path d="M5360 81 c0 -6 5 -13 10 -16 6 -3 10 1 10 9 0 9 -4 16 -10 16 -5 0
-10 -4 -10 -9z"/>
<path d="M4930 21 c-10 -20 -8 -21 30 -21 34 0 41 3 38 18 -5 26 -54 28 -68 3z"/>
</g>
</svg>
